<svg xmlns="http://www.w3.org/2000/svg" width="366" height="428" viewBox="0 0 366 428"><g fill-rule="evenodd"><g transform="translate(13)"><path d="M340,170 C340,263.888407 263.888407,340 170,340 C157.934138,340 146.161869,338.742976 134.807007,336.352741 L146.037758,323.159034 C153.847677,324.371047 161.850389,325 170,325 C255.604136,325 325,255.604136 325,170 C325,104.416051 284.267674,48.3456466 226.720686,25.7064509 L231.936041,11.6351425 C295.196625,36.3949284 340,97.9652697 340,170 Z M170,0 C182.797986,0 195.265668,1.41419763 207.2553,4.09484665 L196.668972,17.2856448 C188.004734,15.7831358 179.093823,15 170,15 C84.3958638,15 15,84.3958638 15,170 C15,235.808703 56.0119808,292.038544 113.87154,314.525121 L107.812592,328.266242 C44.6847231,303.441889 0,241.939283 0,170 C0,76.1115925 76.1115925,0 170,0 Z"/><path fill-rule="nonzero" d="M68,189.731471 C68,193.938356 71.1662971,197.243765 76.1419069,197.243765 L162.235033,197.243765 L116.549889,320.295132 C111.875831,332.765539 124.54102,339.075866 132.532151,329.009393 L268.532151,159.381806 C270.643016,156.67738 272,154.273446 272,151.418775 C272,147.21189 268.833703,143.756235 263.707317,143.756235 L177.764967,143.756235 L223.299335,20.7048678 C228.124169,8.23446064 215.45898,1.92413411 207.317073,11.9906074 L71.3170732,181.76844 C69.2062084,184.472866 68,186.8768 68,189.731471 Z"/></g><g fill-rule="nonzero" transform="translate(0 375)"><polygon points="20.448 51.84 36.576 51.84 57.024 1.08 38.448 1.08 28.656 29.376 18.864 1.08 0 1.08"/><path d="M85.392,52.56 C100.944,52.56 112.968,40.896 112.968,26.28 L112.968,26.136 C112.968,11.52 101.088,0 85.536,0 C69.984,0 57.96,11.664 57.96,26.28 L57.96,26.424 C57.96,41.04 69.84,52.56 85.392,52.56 Z M85.536,37.656 C79.056,37.656 74.952,32.256 74.952,26.28 L74.952,26.136 C74.952,20.232 78.984,14.904 85.392,14.904 C91.872,14.904 95.976,20.304 95.976,26.28 L95.976,26.424 C95.976,32.328 91.944,37.656 85.536,37.656 Z"/><polygon points="117.576 51.48 158.112 51.48 158.112 37.08 134.424 37.08 134.424 1.08 117.576 1.08"/><polygon points="174.672 51.48 191.52 51.48 191.52 15.336 206.352 15.336 206.352 1.08 159.84 1.08 159.84 15.336 174.672 15.336"/><path d="M206.496 51.48 224.496 51.48 227.088 44.712 244.728 44.712 247.392 51.48 265.68 51.48 244.44.72 227.736.72 206.496 51.48ZM231.336 32.76 235.944 20.52 240.552 32.76 231.336 32.76ZM294.912 52.56C304.056 52.56 311.688 49.464 317.16 45L317.16 21.672 292.752 21.672 292.752 32.472 301.392 32.472 301.392 37.512C300.096 38.232 298.512 38.664 295.632 38.664 288.576 38.664 283.608 33.768 283.608 26.64L283.608 26.496C283.608 19.656 288.36 14.616 294.912 14.616 299.088 14.616 302.76 16.2 306.072 19.008L315.504 7.632C310.032 2.88 303.048 0 294.408 0 278.496 0 266.616 11.232 266.616 26.28L266.616 26.424C266.616 42.048 279.216 52.56 294.912 52.56Z"/><polygon points="322.056 51.48 365.4 51.48 365.4 37.656 338.616 37.656 338.616 32.184 363.24 32.184 363.24 20.016 338.616 20.016 338.616 14.904 365.04 14.904 365.04 1.08 322.056 1.08"/></g></g></svg>